<?xml version="1.0" encoding="utf-8"?>
<!-- Svg Vector Icons : http://www.onlinewebfonts.com/icon -->
<!DOCTYPE svg PUBLIC "-//W3C//DTD SVG 1.1//EN" "http://www.w3.org/Graphics/SVG/1.1/DTD/svg11.dtd">
<svg version="1.1" xmlns="http://www.w3.org/2000/svg" xmlns:xlink="http://www.w3.org/1999/xlink" x="0px" y="0px" viewBox="0 0 1000 1000" enable-background="new 0 0 1000 1000" xml:space="preserve">
<metadata> Svg Vector Icons : http://www.onlinewebfonts.com/icon </metadata>
<g><path d="M989.4,159.8c-0.2-5.2-0.7-10.3-1.8-15.7c-7.4-35.2-32.3-53-74.2-53H117.2c-36.6,0-76.1,13.6-95.4,40.4c-1.6,1.2-3,2.6-4.4,4.2c-6.2,7.3-8.5,16.7-7,25.5c-0.3,2.4-0.4,4.8-0.4,7.4v632C10,851.8,66.4,909,117.2,909h796.2c50.7,0,76.6-57.1,76.6-108.5c0-15.3,0-30.6,0-45.9c0.1-37.7-0.1-129.9,0-167.6c0.1-48.4-0.1-96.8,0-145.2c0-47.5,0-95-0.1-142.4c-0.1-42,0.5-83.9-0.2-125.9C989.6,168.6,989.6,164.2,989.4,159.8z M117.2,153h796.2h0.4L500,486.9L87.8,154.4C97.2,152.6,108.7,153,117.2,153L117.2,153z M913.4,847H117.2c-16.9,0-45.9-29.4-45.9-46.5V220.4l408.7,330.9c5.7,5.1,12.9,7.6,20.1,7.6c7.1,0,14.3-2.5,20-7.6l408.7-330.9v580.1C928.7,817.6,930.3,847,913.4,847L913.4,847z"/></g>
</svg>